<?xml version="1.0" standalone="no"?><!DOCTYPE svg PUBLIC "-//W3C//DTD SVG 1.1//EN" "http://www.w3.org/Graphics/SVG/1.1/DTD/svg11.dtd"><svg t="1722838293911" class="icon" viewBox="0 0 1024 1024" version="1.1" xmlns="http://www.w3.org/2000/svg" p-id="4291" width="200" height="200"><path d="M959.92 182.88a70 70 0 0 0-70-70h-756a70 70 0 0 0-70 70L64 669.13a70 70 0 0 0 70 70h338v92H328a40 40 0 0 0-40 40 40 40 0 0 0 40 40h368a40 40 0 0 0 40-40 40 40 0 0 0-40-40H552v-92h338a70 70 0 0 0 70-70z m-776 10h656a40 40 0 0 1 40 40l0.08 282.25H144l-0.06-282.25a40 40 0 0 1 39.98-40zM840 659.13H184a40 40 0 0 1-40-40v-24h736v24a40 40 0 0 1-40 40z" fill="#2c2c2c" p-id="4292"></path></svg>
