<svg viewBox="0 0 1024 1024" xmlns="http://www.w3.org/2000/svg" width="128" height="128"><path d="M696.348 51c23.472 0 42.5 19.028 42.5 42.5l-0.001 65.992h150.56c46.271 0 83.781 37.511 83.781 83.783v646.132c0 46.271-37.51 83.781-83.781 83.781H134.782C88.51 973.188 51 935.678 51 889.407V243.275c0-46.272 37.51-83.782 83.782-83.782L247 159.492V93.5c0-23.472 19.028-42.5 42.5-42.5S332 70.028 332 93.5v65.992h321.847V93.5c0-23.472 19.029-42.5 42.5-42.5z m191.84 356.231H136v480.957h752.188V407.231zM336.15 678.827v135.616H200.534V678.827H336.15z m244.109-2.278v135.616H444.643V676.549h135.616z m244.108-1.716V810.45H688.751V674.833h135.616zM336.15 462.743V598.36H200.534V462.744H336.15z m244.109-2.278v135.616H444.643V460.465h135.616z m244.108-1.715v135.615H688.751V458.75h135.616z m63.821-214.257H136v77.738h752.188v-77.738z" /></svg>
